<?xml version="1.0" encoding="UTF-8"?>
<svg id="Layer_3" xmlns="http://www.w3.org/2000/svg" version="1.1" viewBox="0 0 1085.79 366.71">
  <!-- Generator: Adobe Illustrator 29.6.1, SVG Export Plug-In . SVG Version: 2.1.1 Build 9)  -->
  <path d="M157.08,232.22h6.78l11.26,30.11h-6.86l-2.28-6.7h-11.25l-2.36,6.7h-6.69l11.4-30.11ZM156.46,250.66h7.79l-3.78-11.02h-.09l-3.91,11.02Z"/>
  <path d="M189.42,232.22h6.6v11.54h12.18v-11.54h6.62v30.11h-6.62v-13h-12.17v13h-6.62v-30.11Z"/>
  <path d="M225.72,237.15h-5.99v-4.93h5.99v4.93ZM219.73,240.51h5.99v21.81h-5.99v-21.81Z"/>
  <path d="M238.85,240.51h4.38v4.01h-4.38v10.78c0,2.02.51,2.53,2.53,2.53.62.01,1.24-.04,1.86-.17v4.67c-1.17.17-2.36.24-3.54.21-3.71,0-6.86-.79-6.86-5.18v-12.84h-3.62v-4.01h3.62v-6.55h5.98l.05,6.55Z"/>
  <path d="M246.68,247.21c.33-5.55,5.34-7.28,10.23-7.28,4.34,0,9.56.97,9.56,6.18v11.33c-.09,1.67.18,3.33.82,4.88h-6.06c-.22-.68-.37-1.39-.43-2.1-1.97,1.86-4.62,2.83-7.33,2.69-4.17,0-7.41-2.07-7.41-6.53.08-9.89,14.73-4.58,14.49-9.45,0-2.53-1.77-2.95-3.88-2.95-2.36,0-3.75.93-3.96,3.28l-6.04-.05ZM260.49,251.69c-1.02.89-3.12.93-4.97,1.26-1.86.33-3.54,1.02-3.54,3.2s1.73,2.78,3.66,2.78c4.73,0,4.84-3.66,4.84-5.01v-2.23Z"/>
  <path d="M285.5,248.15c-.12-2.2-2.01-3.89-4.21-3.76-.07,0-.14,0-.21.02-3.83,0-5.09,3.88-5.09,7.09s1.18,6.86,4.96,6.86c2.82,0,4.38-1.74,4.73-4.43h5.77c-.79,5.78-4.73,8.93-10.48,8.93-6.57,0-10.99-4.63-10.99-11.17s4.04-11.82,11.12-11.82c5.13,0,9.89,2.69,10.23,8.27h-5.83Z"/>
  <path d="M295.27,232.22h5.98v11.33h.13c1.35-2.22,3.76-3.59,6.36-3.62,6.36,0,7.95,3.54,7.95,8.97v13.42h-5.98v-12.34c0-3.54-1-5.34-3.83-5.34-3.25,0-4.63,1.81-4.63,6.23v11.45h-5.98v-30.11Z"/>
  <path d="M325.95,237.15h-5.98v-4.93h5.98v4.93ZM319.97,240.51h5.98v21.81h-5.98v-21.81Z"/>
  <path d="M363.05,258.88c-1.93,2.63-5.01,4.17-8.27,4.14-9.26,0-14.78-6.96-14.78-15.63s5.52-15.87,14.78-15.87c6.16,0,12,3.75,12.68,10.63h-6.31c-.54-3.05-3.27-5.22-6.37-5.06-5.91,0-8.16,5.06-8.16,10.32s2.23,10.07,8.16,10.07c4.34,0,6.78-2.27,7.16-6.49h-6.65v-4.93h12.63v16.27h-4.21l-.66-3.45Z"/>
  <path d="M372.65,240.51h5.71v4.09h.08c1.19-2.78,3.92-4.6,6.95-4.63.44,0,.89.07,1.31.2v5.57c-.71-.14-1.43-.21-2.15-.21-4.42,0-5.91,3.12-5.91,6.99v9.81h-5.98v-21.81Z"/>
  <path d="M398.75,239.94c6.86,0,11.28,4.54,11.28,11.48s-4.42,11.46-11.28,11.46-11.24-4.55-11.24-11.46,4.42-11.48,11.24-11.48ZM398.75,258.38c4.09,0,5.31-3.46,5.31-6.96s-1.18-6.98-5.31-6.98-5.26,3.54-5.26,6.98,1.22,6.96,5.26,6.96Z"/>
  <path d="M433.06,262.33h-5.68v-3.07h-.12c-1.43,2.29-3.95,3.67-6.65,3.63-6.37,0-7.96-3.54-7.96-8.97v-13.4h5.98v12.36c0,3.54,1.02,5.35,3.83,5.35,3.25,0,4.63-1.82,4.63-6.24v-11.41h5.98v21.75Z"/>
  <path d="M436.77,240.51h5.68v2.79h.08c1.39-2.22,3.87-3.51,6.49-3.37,6.82,0,9.89,5.51,9.89,11.7,0,5.81-3.15,11.25-9.56,11.25-2.59.07-5.04-1.17-6.52-3.28h-.08v10.36h-5.98v-29.44ZM452.93,251.47c0-3.54-1.38-7.03-5.22-7.03s-5.18,3.54-5.18,7.03,1.35,6.91,5.22,6.91,5.18-3.38,5.18-6.91Z"/>
  <path d="M491.09,242.33c-.63-3.11-3.4-5.33-6.57-5.27-5.91,0-8.18,5.06-8.18,10.32s2.23,10.07,8.18,10.07c4.04,0,6.31-2.74,6.82-6.73h6.36c-.67,7.54-5.81,12.3-13.22,12.3-9.28,0-14.78-6.96-14.78-15.63s5.51-15.87,14.78-15.87c6.57,0,12.16,3.88,13,10.82h-6.38Z"/>
  <path d="M511.33,239.94c6.86,0,11.28,4.54,11.28,11.48s-4.42,11.46-11.28,11.46-11.24-4.55-11.24-11.46,4.42-11.48,11.24-11.48ZM511.33,258.38c4.09,0,5.31-3.46,5.31-6.96s-1.18-6.98-5.31-6.98-5.26,3.54-5.26,6.98,1.22,6.96,5.26,6.96Z"/>
  <path d="M524.12,240.51h5.65v2.91h.08c1.46-2.24,3.97-3.58,6.65-3.54,2.74,0,5.18.97,6.36,3.62,1.45-2.22,3.91-3.58,6.57-3.62,4.63,0,7.96,2.14,7.96,7.79v14.66h-5.98v-12.37c0-2.91-.26-5.31-3.66-5.31s-4.01,2.81-4.01,5.52v12.16h-5.98v-12.25c0-2.52.17-5.42-3.63-5.42-1.18,0-4.04.76-4.04,5.01v12.67h-5.98v-21.81Z"/>
  <path d="M560.83,240.51h5.68v2.79h.09c1.38-2.22,3.86-3.51,6.47-3.37,6.83,0,9.9,5.51,9.9,11.7,0,5.81-3.15,11.25-9.56,11.25-2.59.07-5.04-1.16-6.52-3.28h-.09v10.36h-5.98v-29.44ZM577.01,251.47c0-3.54-1.39-7.03-5.22-7.03s-5.18,3.54-5.18,7.03,1.35,6.91,5.21,6.91,5.19-3.38,5.19-6.91Z"/>
  <path d="M585.47,247.21c.33-5.55,5.34-7.28,10.23-7.28,4.34,0,9.56.97,9.56,6.18v11.33c-.11,1.65.15,3.31.76,4.84h-6.06c-.22-.68-.37-1.39-.43-2.1-1.97,1.86-4.62,2.83-7.33,2.69-4.17,0-7.41-2.07-7.41-6.53.08-9.89,14.73-4.58,14.49-9.45,0-2.53-1.77-2.95-3.88-2.95-2.36,0-3.75.93-3.96,3.28h-5.98ZM599.31,251.69c-1.02.89-3.12.93-4.97,1.26-1.86.33-3.54,1.02-3.54,3.2s1.73,2.78,3.66,2.78c4.73,0,4.84-3.66,4.84-5.01v-2.23Z"/>
  <path d="M609.04,240.51h5.68v3.04h.13c1.43-2.29,3.95-3.67,6.65-3.62,6.36,0,7.96,3.54,7.96,8.97v13.42h-5.98v-12.34c0-3.54-1.02-5.34-3.84-5.34-3.24,0-4.63,1.81-4.63,6.23v11.45h-5.98v-21.81Z"/>
  <path d="M643.91,265.03c-1.31,3.54-3.41,4.93-7.5,4.93-1.18,0-2.43-.09-3.66-.21v-4.93c1.17.16,2.36.23,3.54.21,1.41-.11,2.46-1.33,2.36-2.74,0-.46-.08-.92-.25-1.35l-7.67-20.43h6.4l4.93,14.91h.08l4.73-14.91h6.19l-9.16,24.52Z"/>
  <path d="M193.83,157.95h33.8c-5.53,19.66-25.95,31.11-45.6,25.58-19.66-5.53-31.11-25.95-25.58-45.6,5.53-19.66,25.95-31.11,45.6-25.58,10.94,3.08,19.86,11.02,24.18,21.53h10.03c-7.77-24.41-33.86-37.9-58.27-30.13-24.41,7.77-37.9,33.86-30.13,58.27,6.13,19.24,24,32.31,44.19,32.32,14.18-.07,27.52-6.69,36.16-17.94v15.94h8.59v-43.72h-42.97v9.32Z"/>
  <rect x="252.48" y="104.43" width="9.25" height="87.9"/>
  <rect x="525.86" y="104.43" width="9.26" height="87.79"/>
  <path d="M309.97,185.97c-14.18,0-25.77-12.22-25.77-26.41s11.54-26.34,25.77-26.34,25.77,12.12,25.77,26.3-11.58,26.41-25.77,26.41M309.97,124.41c-19.39,0-35.11,15.73-35.1,35.13,0,19.39,15.73,35.11,35.13,35.1,19.39,0,35.1-15.73,35.1-35.12-.02-19.39-15.74-35.1-35.13-35.12"/>
  <path d="M390.96,185.97c-14.24,0-25.78-12.22-25.78-26.41s11.54-26.34,25.78-26.34,25.75,12.12,25.75,26.3-11.54,26.41-25.75,26.41M391.35,123.8c-10.02.02-19.54,4.32-26.18,11.82v-31.18h-9.26v87.91h9.24v-8.84c6.64,7.5,16.17,11.8,26.18,11.82,19.74-.36,35.46-16.66,35.1-36.4-.35-19.24-15.86-34.75-35.1-35.1"/>
  <path d="M474.5,185.94c-14.18,0-25.77-12.22-25.77-26.43s11.57-26.33,25.77-26.33,25.76,12.17,25.76,26.35-11.53,26.43-25.76,26.43M500.33,135.76c-13.16-14.73-35.76-16-50.48-2.84-14.73,13.16-16,35.76-2.84,50.48,13.16,14.73,35.76,16,50.48,2.84,1-.89,1.95-1.84,2.84-2.84v8.97h9.36v-64.39h-9.36v7.79Z"/>
  <rect x="778.64" y="95.49" width="16.41" height="15.54"/>
  <polygon points="568.12 104.43 553.08 104.43 553.08 178.14 553.08 192.26 602.33 192.26 602.33 178.14 568.12 178.14 568.12 104.43"/>
  <rect x="778.64" y="123.15" width="16.41" height="68.98"/>
  <path d="M643.99,180.28c-10.98,0-19.9-9.55-19.9-21.27s8.92-21.27,19.9-21.27,19.89,9.55,19.89,21.27-8.91,21.27-19.89,21.27M643.99,122.93c-19.9-.01-36.05,16.11-36.06,36.01-.01,19.9,16.11,36.05,36.01,36.06,19.9.01,36.05-16.11,36.06-36.01v-.02c0-19.9-16.11-36.04-36.01-36.06"/>
  <path d="M863.45,168.66c-3.12,7.07-10.07,11.69-17.79,11.82-10.98,0-19.89-9.58-19.89-21.35,0-12.86,8.91-21.34,19.89-21.34,7.32.1,13.98,4.24,17.31,10.76h17.18c-5.81-19.08-25.98-29.84-45.06-24.03-19.08,5.81-29.84,25.98-24.03,45.06,5.81,19.08,25.98,29.84,45.06,24.03,11.85-3.61,21.02-13.03,24.3-24.97l-16.97.02Z"/>
  <path d="M724.1,216.1c-7.38-.13-14.27-3.7-18.63-9.64l-14.57,7.09c7.13,11.42,19.74,18.23,33.2,17.95,19-.15,34.79-14.69,36.5-33.62h-16.47c-1.42,10.29-9.84,18.21-20.09,18.21"/>
  <path d="M724.87,180.62c-10.93,0-19.8-9.55-19.8-21.27s8.87-21.27,19.8-21.27,19.85,9.45,19.85,21.27-8.89,21.27-19.85,21.27M745.95,130.33c-16.04-11.63-38.47-8.05-50.1,7.99-11.63,16.04-8.05,38.47,7.99,50.1,16.04,11.63,38.47,8.05,50.1-7.99,4.41-6.08,6.8-13.39,6.83-20.9v-36.32h-14.82v7.12Z"/>
  <path d="M894.23,111.09c.08-5.38,4.5-9.67,9.88-9.59,5.38.08,9.67,4.5,9.59,9.88-.08,5.32-4.41,9.59-9.72,9.59-5.34.05-9.7-4.24-9.75-9.58,0-.1,0-.2,0-.3ZM912.19,111.09c0-4.97-3.47-8.63-8.21-8.63s-8.19,3.65-8.19,8.63c-.24,4.53,3.23,8.4,7.76,8.64,4.53.24,8.4-3.23,8.64-7.76.02-.29.02-.59,0-.88ZM900.12,105.71h4.9c1.69-.18,3.2,1.05,3.38,2.74,0,.08.01.16.02.24.04,1.26-.88,2.35-2.13,2.53h0c1.18.31,1.62.92,1.76,2.2.17,1.45.17,2.54.5,2.67v.18h-2.03c-.31-.14-.34-1.25-.44-2.47.03-.97-.73-1.78-1.71-1.81-.1,0-.2,0-.3.02h-1.89v4.27h-2.07v-10.55ZM902.19,110.44h2.36c1.18,0,1.81-.6,1.81-1.51s-.59-1.49-1.77-1.49h-2.36l-.04,3Z"/>
</svg>